<svg width="40" height="40" viewBox="0 0 40 40" fill="none" xmlns="http://www.w3.org/2000/svg">
<rect width="40" height="40" rx="8" fill="#090909"/>
<path d="M30.3398 17.6674C30.6778 17.6738 30.9898 17.8505 31.169 18.1371C32.4586 20.2023 32.8599 22.3227 32.9766 23.6781L33.0107 24.2103V24.2113C33.0315 24.7125 33.0441 25.0051 33.041 25.2396C33.0394 25.3589 33.0337 25.4737 33.0254 25.6029L32.9922 26.0531C32.8079 28.4456 31.541 30.6479 29.5215 31.9203C28.5756 32.5162 27.383 32.762 25.9082 32.8812C24.425 33.0011 22.5025 33.0004 20.0205 33.0004C17.5386 33.0004 15.616 33.0011 14.1328 32.8812C12.6581 32.762 11.4654 32.5163 10.5195 31.9203C8.50008 30.6479 7.23311 28.4456 7.04883 26.0531L7.04981 26.0521C7.02577 25.787 7.0087 25.5213 7.00098 25.2553V25.2455C6.99622 25.006 7.01083 24.7055 7.03126 24.2113V24.2103C7.08591 22.9302 7.39913 20.4974 8.87305 18.1371L8.95118 18.0287C9.14881 17.7904 9.44837 17.6552 9.7627 17.6683C10.1221 17.6834 10.4459 17.8904 10.6104 18.2103C11.0887 19.1407 12.1964 20.4292 13.6943 21.8715C15.0867 23.212 16.7422 24.6151 18.3574 25.8832C19.149 25.8338 20.0657 25.5679 21.0625 25.1117C22.1873 24.5969 23.3542 23.8675 24.4688 23.0375C26.7125 21.3666 28.6328 19.3727 29.4932 18.1058L29.5703 18.0062C29.7631 17.7873 30.044 17.6617 30.3398 17.6674ZM9.83106 20.6361C9.22726 22.1 9.06454 23.4699 9.0293 24.2953C9.00714 24.8313 8.9978 25.0452 9.00098 25.2054H9.00001C9.00334 25.3175 9.00887 25.4295 9.01563 25.5414L9.042 25.8851L9.04297 25.8998C9.18137 27.6966 10.1307 29.311 11.5859 30.2279C12.1106 30.5585 12.9026 30.7756 14.294 30.8881C15.6774 30.9999 17.504 31.0004 20.0205 31.0004C21.2666 31.0004 22.3436 30.9995 23.2813 30.9857C21.0813 30.1839 19.1138 29.0076 17.4082 27.681C15.668 26.3277 13.844 24.793 12.3066 23.3129C11.3696 22.4106 10.5054 21.4973 9.83106 20.6361ZM30.1523 20.5062C29.0238 21.8152 27.4188 23.3345 25.6631 24.642C24.471 25.5297 23.1818 26.3409 21.8945 26.9301C21.4607 27.1286 21.019 27.3027 20.5762 27.4486C22.9351 28.9039 25.6623 29.9288 28.7002 30.0629C30.0165 29.1248 30.8676 27.5937 30.9981 25.8998C31.027 25.5209 31.0389 25.3734 31.041 25.2123C31.0432 25.047 31.0346 24.8247 31.0127 24.2953L30.9824 23.8422C30.9079 22.9838 30.697 21.7757 30.1523 20.5062ZM17.9199 7.37537C19.2758 6.87491 20.7662 6.87484 22.1221 7.37537V7.37635C23.1673 7.76292 24.0099 8.54527 24.8613 9.60291C25.7113 10.6588 26.6632 12.1122 27.8809 13.9672H27.8818L28.8565 15.4515C29.1596 15.9132 29.031 16.5331 28.5693 16.8363C28.1077 17.1393 27.4877 17.0107 27.1846 16.5492L26.21 15.0658C24.9693 13.1759 24.0786 11.8194 23.3037 10.8568C22.5302 9.89591 21.9661 9.45009 21.4287 9.25135V9.25232C20.5199 8.91688 19.5211 8.91682 18.6123 9.25232C18.0751 9.45122 17.5117 9.89721 16.7383 10.8578C15.9633 11.8204 15.0714 13.1759 13.8301 15.0658L13.8291 15.0648L12.8574 16.5492C12.5545 17.011 11.9345 17.1392 11.4727 16.8363C11.0109 16.5335 10.8819 15.9143 11.1846 15.4525L12.1582 13.9681V13.9672C13.3768 12.1119 14.3304 10.6589 15.1807 9.60291C16.032 8.54557 16.874 7.76293 17.919 7.37635L17.9199 7.37537Z" fill="white"/>
<path d="M23.3538 18.0009C24.0902 18.0009 24.6878 18.5975 24.6878 19.3339C24.6878 20.0703 24.0902 20.6669 23.3538 20.6669H23.3421C22.6057 20.6669 22.0091 20.0703 22.0091 19.3339C22.0091 18.5975 22.6057 18.0009 23.3421 18.0009H23.3538Z" fill="white"/>
<path d="M16.6474 17.9599C17.0379 17.5697 17.671 17.5695 18.0614 17.9599C18.4519 18.3503 18.4516 18.9834 18.0614 19.3739L17.3945 20.0409C17.0039 20.4315 16.3709 20.4315 15.9804 20.0409C15.5899 19.6504 15.5899 19.0174 15.9804 18.6269L16.6474 17.9599ZM18.9062 12.4403C19.3998 12.1929 20.0004 12.392 20.248 12.8857C20.3092 13.0077 20.8169 13.6668 22.0204 13.6669C22.5726 13.6669 23.0203 14.1148 23.0204 14.6669C23.0204 15.2192 22.5727 15.6669 22.0204 15.6669C20.0245 15.6668 18.844 14.5481 18.4599 13.7821C18.2124 13.2885 18.4125 12.6879 18.9062 12.4403Z" fill="white"/>
</svg>
